<svg xmlns="http://www.w3.org/2000/svg" width="42" height="42" viewBox="0 0 497.795 497.795"><g fill="#1471d4"><path d="M183.375 334.312l4.479-22.838c8.666-44.302 31.342-104.618 90.135-140.424l22.65-13.776-139.197-85.148c-16.659-10.211-35.784-15.605-55.274-15.605-37.297 0-71.172 18.975-90.61 50.736C-14.963 157.17.809 222.611 50.713 253.15l132.662 81.162zM43.177 124.15c13.495-22.083 37.063-35.273 62.991-35.273 13.519 0 26.794 3.753 38.403 10.836l95.509 58.438c-45.963 36.638-68.086 86.614-78.7 124.749l-93.798-57.354C32.9 204.319 21.948 158.833 43.177 124.15z"/><path d="M449.318 253.258l-124.435-76.133-2.305.982c-14.507 6.209-26.978 13.95-37.986 22.562l119.838 73.156c4.532 2.785 5.972 8.703 3.183 13.24-1.8 2.974-4.974 4.616-8.212 4.616-1.707 0-3.435-.444-5.021-1.41 0 0-122.915-75.895-123.697-77.528-43.949 42.908-56.228 101.4-59.578 129.392l-.375 3.089 132.692 81.139c15.945 9.767 34.224 14.912 52.846 14.912 35.67 0 68.046-18.146 86.637-48.522 29.201-47.722 14.121-110.302-33.587-139.495z"/></g></svg>