<svg xmlns="http://www.w3.org/2000/svg" viewBox="362.025 178.817 798.28 1142.366"><path fill="#1471D4" d="M582.24 1231.72v-89.462h357.849v178.925H864.39c-71.569 0-75.698-1.877-75.698-34.409 0-25.232-7.341-34.408-27.527-34.408s-27.526 9.176-27.526 34.408c0 32.532-4.13 34.409-75.699 34.409h-75.7v-89.463zm-121.119-9.633c-9.084-9.084-16.517-30.762-16.517-48.173 0-27.756 6.782-31.655 55.054-31.655 48.272 0 55.055 3.899 55.055 31.655 0 36.862-23.683 64.688-55.055 64.688-12.111 0-29.453-7.431-38.537-16.515zm536.775 0c-9.084-9.084-16.517-30.762-16.517-48.173 0-27.756 6.782-31.655 55.055-31.655 48.271 0 55.054 3.899 55.054 31.655 0 36.862-23.683 64.688-55.054 64.688-12.112 0-29.455-7.431-38.538-16.515zM362.025 853.226V619.248h798.28v467.957h-798.28V853.226zm674.409 0V660.538H485.896v385.377h550.538V853.226zM631.885 996.617c-21.648-56.413-10.275-74.573 46.699-74.573 30.279 0 55.054-6.194 55.054-13.764 0-7.57-24.774-13.764-55.054-13.764s-55.055-6.193-55.055-13.764c0-7.569 24.774-13.763 55.055-13.763 30.279 0 55.054-6.194 55.054-13.764 0-7.57-27.871-13.764-61.936-13.764s-61.936-6.193-61.936-13.764c0-7.569 27.871-13.763 61.936-13.763s61.936-6.194 61.936-13.764c0-7.57-24.774-13.764-55.054-13.764s-55.055-6.193-55.055-13.764c0-7.569 24.774-13.763 55.055-13.763 30.279 0 55.054-6.194 55.054-13.764 0-7.57-21.678-13.764-48.173-13.764-26.494 0-47.834-5.396-48.172-11.974-.61-11.88 73.24-19.383 96.797-20.902-.771-22.558 56.466-22.86 57.086-.762 13.747 1.698 92.4 3.773 92.625 22.966-.354 5.923-15.206 10.672-46.938 10.672-26.494 0-48.172 6.193-48.172 13.764s24.774 13.764 55.054 13.764 55.054 6.193 55.054 13.764c0 7.569-24.773 13.763-55.054 13.763-30.279 0-55.054 6.194-55.054 13.764 0 7.57 27.871 13.764 61.936 13.764s61.936 6.193 61.936 13.764c0 7.569-27.871 13.763-61.936 13.763s-61.936 6.194-61.936 13.764c0 7.57 24.774 13.764 55.054 13.764s55.054 6.193 55.054 13.764c0 7.569-24.773 13.763-55.054 13.763-30.279 0-55.054 6.194-55.054 13.764 0 7.57 24.774 13.764 55.054 13.764 45.096 0 55.054 4.775 55.054 26.401 0 75.823-37.333 90.616-80.997 32.093l-28.238-37.849-.436 37.849c-.329 28.529-7.215 37.85-27.963 37.85-20.747 0-27.634-9.32-27.963-37.85l-.436-37.849-28.238 37.849c-31.642 42.411-60.119 48.715-72.643 16.079zM496.436 536.263l44.948-40.887h425.798l44.949 40.887 44.947 40.887H451.487l44.949-40.887zm167.326-122.409c-88.658-88.657-27.996-235.037 97.402-235.037s186.061 146.38 97.403 235.037c-56.653 56.654-138.153 56.654-194.805 0z"/></svg>